<?xml version="1.0" standalone="no"?>
<svg xmlns="http://www.w3.org/2000/svg" xmlns:xlink="http://www.w3.org/1999/xlink" width="800pt" height="693pt" viewBox="0.00 0.00 799.72 693">
<g id="graph0" class="graph" transform="translate(17.322248479773975,658.7983338107201) scale(0.9434382508953607)" data-name="sharebnb">

<polygon fill="#333333" stroke="none" points="-4,4 -4,-689 795.72,-689 795.72,4 -4,4"/>
<!-- app -->
<g id="node1" class="node" pointer-events="visible" data-name="app">

<polygon fill="#444444" stroke="#ffffff" points="162.31,-348.6 -0.1,-348.6 -0.1,-307.4 162.31,-307.4 162.31,-348.6"/>
<text text-anchor="middle" x="81.1" y="-332.2" font-family="Times,serif" font-size="14.00" fill="#ffffff">_app.tsx</text>
<text text-anchor="middle" x="81.1" y="-315.4" font-family="Times,serif" font-size="14.00" fill="#ffffff">(Custom App component)</text>
</g>
<!-- index -->
<g id="node2" class="node" pointer-events="visible" data-name="index">

<polygon fill="#444444" stroke="#ffffff" points="313.61,-528.6 216.29,-528.6 216.29,-487.4 313.61,-487.4 313.61,-528.6"/>
<text text-anchor="middle" x="264.95" y="-512.2" font-family="Times,serif" font-size="14.00" fill="#ffffff">page.tsx</text>
<text text-anchor="middle" x="264.95" y="-495.4" font-family="Times,serif" font-size="14.00" fill="#ffffff">(ListingsPage)</text>
</g>
<!-- app&#45;&gt;index -->
<g id="edge1" class="edge" data-name="app-&gt;index">

<path fill="none" stroke="#ffffff" d="M94,-348.98C112.79,-380.57 152.11,-440.62 199.21,-478 201.46,-479.79 203.83,-481.49 206.29,-483.12"/>
<polygon fill="#ffffff" stroke="#ffffff" points="204.42,-486.08 214.79,-488.24 208.03,-480.09 204.42,-486.08"/>
</g>
<!-- login -->
<g id="node3" class="node" pointer-events="visible" data-name="login">

<polygon fill="#444444" stroke="#ffffff" points="307.93,-468.6 221.97,-468.6 221.97,-427.4 307.93,-427.4 307.93,-468.6"/>
<text text-anchor="middle" x="264.95" y="-452.2" font-family="Times,serif" font-size="14.00" fill="#ffffff">login.tsx</text>
<text text-anchor="middle" x="264.95" y="-435.4" font-family="Times,serif" font-size="14.00" fill="#ffffff">(LoginPage)</text>
</g>
<!-- app&#45;&gt;login -->
<g id="edge2" class="edge" data-name="app-&gt;login">

<path fill="none" stroke="rgb(255, 255, 255)" d="M106.09,-348.98C128.99,-368.39 164.99,-397.28 199.21,-418 203.2,-420.42 207.42,-422.78 211.72,-425.04"/>
<polygon fill="#ffffff" stroke="#ffffff" points="209.94,-428.06 220.45,-429.44 213.09,-421.81 209.94,-428.06"/>
</g>
<!-- register -->
<g id="node4" class="node" pointer-events="visible" data-name="register">

<polygon fill="#444444" stroke="#ffffff" points="314.64,-408.6 215.26,-408.6 215.26,-367.4 314.64,-367.4 314.64,-408.6"/>
<text text-anchor="middle" x="264.95" y="-392.2" font-family="Times,serif" font-size="14.00" fill="#ffffff">register.tsx</text>
<text text-anchor="middle" x="264.95" y="-375.4" font-family="Times,serif" font-size="14.00" fill="#ffffff">(RegisterPage)</text>
</g>
<!-- app&#45;&gt;register -->
<g id="edge3" class="edge" data-name="app-&gt;register">

<path fill="none" stroke="rgb(255, 255, 255)" d="M145.96,-349.07C164.87,-355.31 185.49,-362.11 204.13,-368.26"/>
<polygon fill="#ffffff" stroke="#ffffff" points="202.82,-371.52 213.41,-371.33 205.01,-364.87 202.82,-371.52"/>
</g>
<!-- profile -->
<g id="node5" class="node" pointer-events="visible" data-name="profile">

<polygon fill="#444444" stroke="#ffffff" points="323.53,-348.6 206.37,-348.6 206.37,-307.4 323.53,-307.4 323.53,-348.6"/>
<text text-anchor="middle" x="264.95" y="-332.2" font-family="Times,serif" font-size="14.00" fill="#ffffff">profile.tsx</text>
<text text-anchor="middle" x="264.95" y="-315.4" font-family="Times,serif" font-size="14.00" fill="#ffffff">(UserProfilePage)</text>
</g>
<!-- app&#45;&gt;profile -->
<g id="edge4" class="edge" data-name="app-&gt;profile">

<path fill="none" stroke="rgb(255, 255, 255)" d="M162.66,-328C173.4,-328 184.34,-328 194.87,-328"/>
<polygon fill="#ffffff" stroke="#ffffff" points="194.58,-331.5 204.58,-328 194.58,-324.5 194.58,-331.5"/>
</g>
<!-- id -->
<g id="node6" class="node" pointer-events="visible" data-name="id">

<polygon fill="#444444" stroke="#ffffff" points="330.94,-281.6 198.96,-281.6 198.96,-240.4 330.94,-240.4 330.94,-281.6"/>
<text text-anchor="middle" x="264.95" y="-265.2" font-family="Times,serif" font-size="14.00" fill="#ffffff">[id].tsx</text>
<text text-anchor="middle" x="264.95" y="-248.4" font-family="Times,serif" font-size="14.00" fill="#ffffff">(Individual Listings)</text>
</g>
<!-- app&#45;&gt;id -->
<g id="edge5" class="edge" data-name="app-&gt;id">

<path fill="none" stroke="rgb(255, 255, 255)" d="M139.14,-306.98C157.25,-300.31 177.45,-292.87 196.23,-285.95"/>
<polygon fill="#ffffff" stroke="#ffffff" points="197.21,-289.32 205.38,-282.58 194.79,-282.75 197.21,-289.32"/>
</g>
<!-- booking -->
<g id="node7" class="node" pointer-events="visible" data-name="booking">

<polygon fill="#444444" stroke="#ffffff" points="315.22,-206.6 214.68,-206.6 214.68,-165.4 315.22,-165.4 315.22,-206.6"/>
<text text-anchor="middle" x="264.95" y="-190.2" font-family="Times,serif" font-size="14.00" fill="#ffffff">booking.tsx</text>
<text text-anchor="middle" x="264.95" y="-173.4" font-family="Times,serif" font-size="14.00" fill="#ffffff">(BookingPage)</text>
</g>
<!-- app&#45;&gt;booking -->
<g id="edge6" class="edge" data-name="app-&gt;booking">

<path fill="none" stroke="rgb(255, 255, 255)" d="M106.29,-306.95C129.64,-286.87 166.2,-256.07 199.21,-231 206.89,-225.17 215.24,-219.14 223.32,-213.46"/>
<polygon fill="#ffffff" stroke="#ffffff" points="225.16,-216.44 231.37,-207.86 221.16,-210.7 225.16,-216.44"/>
</g>
<!-- messages -->
<g id="node8" class="node" pointer-events="visible" data-name="messages">

<polygon fill="#444444" stroke="#ffffff" points="318.42,-137.6 211.48,-137.6 211.48,-96.4 318.42,-96.4 318.42,-137.6"/>
<text text-anchor="middle" x="264.95" y="-121.2" font-family="Times,serif" font-size="14.00" fill="#ffffff">messages.tsx</text>
<text text-anchor="middle" x="264.95" y="-104.4" font-family="Times,serif" font-size="14.00" fill="#ffffff">(MessagesPage)</text>
</g>
<!-- app&#45;&gt;messages -->
<g id="edge7" class="edge" data-name="app-&gt;messages">

<path fill="none" stroke="rgb(255, 255, 255)" d="M92.49,-307.09C110.48,-272.42 150.26,-202.3 199.21,-156 203.62,-151.83 208.55,-147.89 213.66,-144.24"/>
<polygon fill="#ffffff" stroke="#ffffff" points="215.38,-147.3 221.75,-138.83 211.49,-141.48 215.38,-147.3"/>
</g>
<!-- searchBar -->
<g id="node9" class="node" pointer-events="visible" data-name="searchBar">

<polygon fill="#444444" stroke="#ffffff" points="548.35,-603 476.41,-603 476.41,-567 548.35,-567 548.35,-603"/>
<text text-anchor="middle" x="512.38" y="-580.8" font-family="Times,serif" font-size="14.00" fill="#ffffff">searchBar</text>
</g>
<!-- index&#45;&gt;searchBar -->
<g id="edge8" class="edge" data-name="index-&gt;searchBar">

<path fill="none" stroke="rgb(255, 255, 255)" d="M313.85,-523.03C357.61,-536.76 421.9,-556.93 465.13,-570.49"/>
<polygon fill="#ffffff" stroke="#ffffff" points="463.88,-573.77 474.47,-573.42 465.98,-567.09 463.88,-573.77"/>
</g>
<!-- listingList -->
<g id="node13" class="node" pointer-events="visible" data-name="listingList">

<polygon fill="#444444" stroke="#ffffff" points="551.33,-524 473.43,-524 473.43,-488 551.33,-488 551.33,-524"/>
<text text-anchor="middle" x="512.38" y="-501.8" font-family="Times,serif" font-size="14.00" fill="#ffffff">ListingList</text>
</g>
<!-- index&#45;&gt;listingList -->
<g id="edge12" class="edge" data-name="index-&gt;listingList">

<path fill="none" stroke="#ffffff" d="M313.85,-507.61C356.53,-507.26 418.74,-506.75 461.89,-506.4"/>
<polygon fill="#ffffff" stroke="#ffffff" points="461.77,-509.9 471.74,-506.32 461.71,-502.9 461.77,-509.9"/>
<text text-anchor="middle" x="397.9" y="-511.2" font-family="Times,serif" font-size="14.00" fill="#ffffff">ListingList.tsx</text>
</g>
<!-- LoginForm -->
<g id="node23" class="node" pointer-events="visible" data-name="LoginForm">

<polygon fill="#444444" stroke="#ffffff" points="552.16,-467 472.6,-467 472.6,-431 552.16,-431 552.16,-467"/>
<text text-anchor="middle" x="512.38" y="-444.8" font-family="Times,serif" font-size="14.00" fill="#ffffff">LoginForm</text>
</g>
<!-- login&#45;&gt;LoginForm -->
<g id="edge22" class="edge" data-name="login-&gt;LoginForm">

<path fill="none" stroke="rgb(255, 255, 255)" d="M308.42,-448.17C350.83,-448.35 416,-448.61 461,-448.79"/>
<polygon fill="#ffffff" stroke="#ffffff" points="460.73,-452.29 470.75,-448.83 460.76,-445.29 460.73,-452.29"/>
<text text-anchor="middle" x="397.9" y="-452.2" font-family="Times,serif" font-size="14.00" fill="rgb(255, 255, 255)">LoginForm.tsx</text>
</g>
<!-- RegisterForm -->
<g id="node24" class="node" pointer-events="visible" data-name="RegisterForm">

<polygon fill="#444444" stroke="#ffffff" points="558.87,-413 465.89,-413 465.89,-377 558.87,-377 558.87,-413"/>
<text text-anchor="middle" x="512.38" y="-390.8" font-family="Times,serif" font-size="14.00" fill="#ffffff">RegisterForm</text>
</g>
<!-- register&#45;&gt;RegisterForm -->
<g id="edge23" class="edge" data-name="register-&gt;RegisterForm">

<path fill="none" stroke="rgb(255, 255, 255)" d="M315.03,-389.4C355.18,-390.54 412.02,-392.17 454.22,-393.37"/>
<polygon fill="#ffffff" stroke="#ffffff" points="454.1,-396.87 464.19,-393.65 454.29,-389.87 454.1,-396.87"/>
<text text-anchor="middle" x="397.9" y="-397.2" font-family="Times,serif" font-size="14.00" fill="rgb(255, 255, 255)">RegisterForm.tsx</text>
</g>
<!-- user -->
<g id="node15" class="node" pointer-events="visible" data-name="user">

<polygon fill="#444444" stroke="#ffffff" points="539.38,-359 485.38,-359 485.38,-323 539.38,-323 539.38,-359"/>
<text text-anchor="middle" x="512.38" y="-336.8" font-family="Times,serif" font-size="14.00" fill="#ffffff">user</text>
</g>
<!-- profile&#45;&gt;user -->
<g id="edge14" class="edge" data-name="profile-&gt;user">

<path fill="none" stroke="rgb(255, 255, 255)" d="M323.8,-331.06C370.14,-333.52 433.79,-336.89 473.74,-339.01"/>
<polygon fill="#ffffff" stroke="#ffffff" points="473.41,-342.49 483.58,-339.53 473.78,-335.5 473.41,-342.49"/>
</g>
<!-- listing -->
<g id="node19" class="node" pointer-events="visible" data-name="listing">

<polygon fill="#444444" stroke="#ffffff" points="539.38,-264 485.38,-264 485.38,-228 539.38,-228 539.38,-264"/>
<text text-anchor="middle" x="512.38" y="-241.8" font-family="Times,serif" font-size="14.00" fill="#ffffff">listing</text>
</g>
<!-- id&#45;&gt;listing -->
<g id="edge18" class="edge" data-name="id-&gt;listing">

<path fill="none" stroke="rgb(255, 255, 255)" d="M331.4,-257C376.95,-254.22 436.08,-250.6 473.89,-248.29"/>
<polygon fill="#ffffff" stroke="#ffffff" points="473.62,-251.81 483.39,-247.71 473.19,-244.83 473.62,-251.81"/>
</g>
<!-- BookingForm -->
<g id="node25" class="node" pointer-events="visible" data-name="BookingForm">

<polygon fill="#444444" stroke="#ffffff" points="559.45,-204 465.31,-204 465.31,-168 559.45,-168 559.45,-204"/>
<text text-anchor="middle" x="512.38" y="-181.8" font-family="Times,serif" font-size="14.00" fill="#ffffff">BookingForm</text>
</g>
<!-- booking&#45;&gt;BookingForm -->
<g id="edge24" class="edge" data-name="booking-&gt;BookingForm">

<path fill="none" stroke="rgb(255, 255, 255)" d="M315.62,-186C355.56,-186 411.74,-186 453.68,-186"/>
<polygon fill="#ffffff" stroke="#ffffff" points="453.59,-189.5 463.59,-186 453.59,-182.5 453.59,-189.5"/>
<text text-anchor="middle" x="397.9" y="-190.2" font-family="Times,serif" font-size="14.00" fill="rgb(255, 255, 255)">BookingForm.tsx</text>
</g>
<!-- payment -->
<g id="node26" class="node" pointer-events="visible" data-name="payment">

<polygon fill="#444444" stroke="#ffffff" points="544.59,-146 480.17,-146 480.17,-110 544.59,-110 544.59,-146"/>
<text text-anchor="middle" x="512.38" y="-123.8" font-family="Times,serif" font-size="14.00" fill="#ffffff">payment</text>
</g>
<!-- booking&#45;&gt;payment -->
<g id="edge25" class="edge" data-name="booking-&gt;payment">

<path fill="none" stroke="rgb(255, 255, 255)" d="M315.62,-174.26C360.52,-163.65 425.95,-148.19 468.59,-138.11"/>
<polygon fill="#ffffff" stroke="#ffffff" points="469.31,-141.54 478.24,-135.83 467.7,-134.73 469.31,-141.54"/>
</g>
<!-- messagesComponents -->
<g id="node28" class="node" pointer-events="visible" data-name="messagesComponents">

<polygon fill="#444444" stroke="#ffffff" points="546.76,-90 478,-90 478,-54 546.76,-54 546.76,-90"/>
<text text-anchor="middle" x="512.38" y="-67.8" font-family="Times,serif" font-size="14.00" fill="#ffffff">messages</text>
</g>
<!-- messages&#45;&gt;messagesComponents -->
<g id="edge27" class="edge" data-name="messages-&gt;messagesComponents">

<path fill="none" stroke="rgb(255, 255, 255)" d="M318.9,-107.29C362.95,-99.21 424.97,-87.84 466.59,-80.21"/>
<polygon fill="#ffffff" stroke="#ffffff" points="467.06,-83.68 476.26,-78.44 465.8,-76.8 467.06,-83.68"/>
</g>
<!-- LocationFilter -->
<g id="node10" class="node" pointer-events="visible" data-name="LocationFilter">

<polygon fill="#444444" stroke="#ffffff" points="791.76,-685 695.58,-685 695.58,-649 791.76,-649 791.76,-685"/>
<text text-anchor="middle" x="743.67" y="-662.8" font-family="Times,serif" font-size="14.00" fill="#ffffff">LocationFilter</text>
</g>
<!-- searchBar&#45;&gt;LocationFilter -->
<g id="edge9" class="edge" data-name="searchBar-&gt;LocationFilter">

<path fill="none" stroke="rgb(255, 255, 255)" d="M538.97,-603.45C550.37,-611 564.24,-619.28 577.66,-625 611.72,-639.52 651.94,-649.88 684.15,-656.68"/>
<polygon fill="#ffffff" stroke="#ffffff" points="683.2,-660.06 693.7,-658.64 684.6,-653.2 683.2,-660.06"/>
<text text-anchor="middle" x="627.64" y="-658.2" font-family="Times,serif" font-size="14.00" fill="rgb(255, 255, 255)">LocationFilter.tsx</text>
</g>
<!-- DateFilter -->
<g id="node11" class="node" pointer-events="visible" data-name="DateFilter">

<polygon fill="#444444" stroke="#ffffff" points="779.92,-631 707.41,-631 707.41,-595 779.92,-595 779.92,-631"/>
<text text-anchor="middle" x="743.67" y="-608.8" font-family="Times,serif" font-size="14.00" fill="#ffffff">DateFilter</text>
</g>
<!-- searchBar&#45;&gt;DateFilter -->
<g id="edge10" class="edge" data-name="searchBar-&gt;DateFilter">

<path fill="none" stroke="rgb(255, 255, 255)" d="M548.7,-589.31C588.14,-594.13 652.14,-601.95 695.75,-607.27"/>
<polygon fill="#ffffff" stroke="#ffffff" points="695.07,-610.71 705.42,-608.45 695.92,-603.77 695.07,-610.71"/>
<text text-anchor="middle" x="627.64" y="-608.2" font-family="Times,serif" font-size="14.00" fill="rgb(255, 255, 255)">DateFilter.tsx</text>
</g>
<!-- GuestFilter -->
<g id="node12" class="node" pointer-events="visible" data-name="GuestFilter">

<polygon fill="#444444" stroke="#ffffff" points="783.16,-577 704.17,-577 704.17,-541 783.16,-541 783.16,-577"/>
<text text-anchor="middle" x="743.67" y="-554.8" font-family="Times,serif" font-size="14.00" fill="#ffffff">GuestFilter</text>
</g>
<!-- searchBar&#45;&gt;GuestFilter -->
<g id="edge11" class="edge" data-name="searchBar-&gt;GuestFilter">

<path fill="none" stroke="rgb(255, 255, 255)" d="M548.67,-578.58C558.07,-577.01 568.24,-575.42 577.66,-574.2 616.2,-569.2 660,-565.24 692.79,-562.62"/>
<polygon fill="#ffffff" stroke="#ffffff" points="692.7,-566.14 702.39,-561.87 692.15,-559.16 692.7,-566.14"/>
<text text-anchor="middle" x="627.64" y="-578.2" font-family="Times,serif" font-size="14.00" fill="rgb(255, 255, 255)">GuestFilter.tsx</text>
</g>
<!-- ListingItem -->
<g id="node14" class="node" pointer-events="visible" data-name="ListingItem">

<polygon fill="#444444" stroke="#ffffff" points="784.49,-523 702.84,-523 702.84,-487 784.49,-487 784.49,-523"/>
<text text-anchor="middle" x="743.67" y="-500.8" font-family="Times,serif" font-size="14.00" fill="#ffffff">ListingItem</text>
</g>
<!-- listingList&#45;&gt;ListingItem -->
<g id="edge13" class="edge" data-name="listingList-&gt;ListingItem">

<path fill="none" stroke="#ffffff" d="M551.76,-505.83C589.98,-505.67 648.9,-505.41 691.17,-505.22"/>
<polygon fill="#ffffff" stroke="#ffffff" points="691.12,-508.72 701.11,-505.18 691.09,-501.72 691.12,-508.72"/>
<text text-anchor="middle" x="627.64" y="-509.2" font-family="Times,serif" font-size="14.00" fill="rgb(255, 255, 255)">ListingItem.tsx</text>
</g>
<!-- UserInfo -->
<g id="node16" class="node" pointer-events="visible" data-name="UserInfo">

<polygon fill="#444444" stroke="#ffffff" points="776.42,-468 710.91,-468 710.91,-432 776.42,-432 776.42,-468"/>
<text text-anchor="middle" x="743.67" y="-445.8" font-family="Times,serif" font-size="14.00" fill="#ffffff">UserInfo</text>
</g>
<!-- user&#45;&gt;UserInfo -->
<g id="edge15" class="edge" data-name="user-&gt;UserInfo">

<path fill="none" stroke="rgb(255, 255, 255)" d="M539.78,-352.91C546.84,-356.97 554.06,-362.03 559.66,-368 571.9,-381.05 563.86,-392.62 577.66,-404 612.24,-432.51 663.28,-443.39 699.43,-447.52"/>
<polygon fill="#ffffff" stroke="#ffffff" points="698.79,-450.98 709.09,-448.49 699.49,-444.01 698.79,-450.98"/>
<text text-anchor="middle" x="627.64" y="-447.2" font-family="Times,serif" font-size="14.00" fill="rgb(255, 255, 255)">UserInfo.tsx</text>
</g>
<!-- UserListings -->
<g id="node17" class="node" pointer-events="visible" data-name="UserListings">

<polygon fill="#444444" stroke="#ffffff" points="787.22,-414 700.11,-414 700.11,-378 787.22,-378 787.22,-414"/>
<text text-anchor="middle" x="743.67" y="-391.8" font-family="Times,serif" font-size="14.00" fill="#ffffff">UserListings</text>
</g>
<!-- user&#45;&gt;UserListings -->
<g id="edge16" class="edge" data-name="user-&gt;UserListings">

<path fill="none" stroke="rgb(255, 255, 255)" d="M539.76,-350.36C551.31,-354.26 565.07,-358.66 577.66,-362 614.33,-371.73 656.2,-380.33 688.59,-386.45"/>
<polygon fill="#ffffff" stroke="#ffffff" points="687.66,-389.84 698.13,-388.23 688.94,-382.95 687.66,-389.84"/>
<text text-anchor="middle" x="627.64" y="-387.2" font-family="Times,serif" font-size="14.00" fill="rgb(255, 255, 255)">UserListings.tsx</text>
</g>
<!-- UserBookings -->
<g id="node18" class="node" pointer-events="visible" data-name="UserBookings">

<polygon fill="#444444" stroke="#ffffff" points="791.78,-360 695.56,-360 695.56,-324 791.78,-324 791.78,-360"/>
<text text-anchor="middle" x="743.67" y="-337.8" font-family="Times,serif" font-size="14.00" fill="#ffffff">UserBookings</text>
</g>
<!-- user&#45;&gt;UserBookings -->
<g id="edge17" class="edge" data-name="user-&gt;UserBookings">

<path fill="none" stroke="rgb(255, 255, 255)" d="M539.68,-341.11C574.6,-341.27 637.26,-341.54 683.75,-341.74"/>
<polygon fill="#ffffff" stroke="#ffffff" points="683.67,-345.24 693.69,-341.79 683.7,-338.24 683.67,-345.24"/>
<text text-anchor="middle" x="627.64" y="-345.2" font-family="Times,serif" font-size="14.00" fill="rgb(255, 255, 255)">UserBookings.tsx</text>
</g>
<!-- ListingInfo -->
<g id="node20" class="node" pointer-events="visible" data-name="ListingInfo">

<polygon fill="#444444" stroke="#ffffff" points="783.16,-306 704.17,-306 704.17,-270 783.16,-270 783.16,-306"/>
<text text-anchor="middle" x="743.67" y="-283.8" font-family="Times,serif" font-size="14.00" fill="#ffffff">ListingInfo</text>
</g>
<!-- listing&#45;&gt;ListingInfo -->
<g id="edge19" class="edge" data-name="listing-&gt;ListingInfo">

<path fill="none" stroke="rgb(255, 255, 255)" d="M539.81,-253.68C551.36,-256.86 565.12,-260.4 577.66,-263 615.98,-270.95 659.8,-277.47 692.65,-281.85"/>
<polygon fill="#ffffff" stroke="#ffffff" points="691.91,-285.29 702.28,-283.12 692.82,-278.35 691.91,-285.29"/>
<text text-anchor="middle" x="627.64" y="-283.2" font-family="Times,serif" font-size="14.00" fill="rgb(255, 255, 255)">ListingInfo.tsx</text>
</g>
<!-- Reviews -->
<g id="node21" class="node" pointer-events="visible" data-name="Reviews">

<polygon fill="#444444" stroke="#ffffff" points="775.88,-252 711.45,-252 711.45,-216 775.88,-216 775.88,-252"/>
<text text-anchor="middle" x="743.67" y="-229.8" font-family="Times,serif" font-size="14.00" fill="#ffffff">Reviews</text>
</g>
<!-- listing&#45;&gt;Reviews -->
<g id="edge20" class="edge" data-name="listing-&gt;Reviews">

<path fill="none" stroke="rgb(255, 255, 255)" d="M539.68,-244.62C578.83,-242.57 652.84,-238.7 699.86,-236.24"/>
<polygon fill="#ffffff" stroke="#ffffff" points="699.88,-239.74 709.68,-235.73 699.51,-232.75 699.88,-239.74"/>
<text text-anchor="middle" x="627.64" y="-246.2" font-family="Times,serif" font-size="14.00" fill="rgb(255, 255, 255)">Reviews.tsx</text>
</g>
<!-- HostInfo -->
<g id="node22" class="node" pointer-events="visible" data-name="HostInfo">

<polygon fill="#444444" stroke="#ffffff" points="776.44,-198 710.89,-198 710.89,-162 776.44,-162 776.44,-198"/>
<text text-anchor="middle" x="743.67" y="-175.8" font-family="Times,serif" font-size="14.00" fill="#ffffff">HostInfo</text>
</g>
<!-- listing&#45;&gt;HostInfo -->
<g id="edge21" class="edge" data-name="listing-&gt;HostInfo">

<path fill="none" stroke="rgb(255, 255, 255)" d="M539.74,-232.19C551.17,-226.63 564.84,-220.52 577.66,-216.2 617.94,-202.63 665.49,-192.82 699.17,-186.87"/>
<polygon fill="#ffffff" stroke="#ffffff" points="699.72,-190.32 708.98,-185.18 698.53,-183.43 699.72,-190.32"/>
<text text-anchor="middle" x="627.64" y="-220.2" font-family="Times,serif" font-size="14.00" fill="rgb(255, 255, 255)">HostInfo.tsx</text>
</g>
<!-- forms -->

<!-- PaymentInfo -->
<g id="node27" class="node" pointer-events="visible" data-name="PaymentInfo">

<polygon fill="#444444" stroke="#ffffff" points="787.98,-144 699.35,-144 699.35,-108 787.98,-108 787.98,-144"/>
<text text-anchor="middle" x="743.67" y="-121.8" font-family="Times,serif" font-size="14.00" fill="#ffffff">PaymentInfo</text>
</g>
<!-- payment&#45;&gt;PaymentInfo -->
<g id="edge26" class="edge" data-name="payment-&gt;PaymentInfo">

<path fill="none" stroke="rgb(255, 255, 255)" d="M544.78,-127.73C581.56,-127.41 643.15,-126.87 687.86,-126.48"/>
<polygon fill="#ffffff" stroke="#ffffff" points="687.64,-129.98 697.61,-126.39 687.58,-122.98 687.64,-129.98"/>
<text text-anchor="middle" x="627.64" y="-131.2" font-family="Times,serif" font-size="14.00" fill="rgb(255, 255, 255)">PaymentInfo.tsx</text>
</g>
<!-- MessageList -->
<g id="node29" class="node" pointer-events="visible" data-name="MessageList">

<polygon fill="#444444" stroke="#ffffff" points="786.93,-90 700.4,-90 700.4,-54 786.93,-54 786.93,-90"/>
<text text-anchor="middle" x="743.67" y="-67.8" font-family="Times,serif" font-size="14.00" fill="#ffffff">MessageList</text>
</g>
<!-- messagesComponents&#45;&gt;MessageList -->
<g id="edge28" class="edge" data-name="messagesComponents-&gt;MessageList">

<path fill="none" stroke="rgb(255, 255, 255)" d="M547.21,-72C584.49,-72 644.96,-72 688.78,-72"/>
<polygon fill="#ffffff" stroke="#ffffff" points="688.59,-75.5 698.59,-72 688.59,-68.5 688.59,-75.5"/>
<text text-anchor="middle" x="627.64" y="-76.2" font-family="Times,serif" font-size="14.00" fill="rgb(255, 255, 255)">MessageList.tsx</text>
</g>
<!-- MessageItem -->
<g id="node30" class="node" pointer-events="visible" data-name="MessageItem">

<polygon fill="#444444" stroke="#ffffff" points="788.81,-36 698.52,-36 698.52,0 788.81,0 788.81,-36"/>
<text text-anchor="middle" x="743.67" y="-13.8" font-family="Times,serif" font-size="14.00" fill="#ffffff">MessageItem</text>
</g>
<g id="edge29" class="edge" data-name="messagesComponents-&gt;MessageItem" data-comment="MessageItem">

<path fill="none" stroke="rgb(255, 255, 255)" d="M547.19,-60.26C556.96,-57.09 567.68,-53.81 577.66,-51.2 613.82,-41.74 655.05,-33.45 687.24,-27.52"/>
<polygon fill="#ffffff" stroke="#ffffff" points="687.53,-31.02 696.74,-25.79 686.28,-24.13 687.53,-31.02"/>
<text text-anchor="middle" x="627.64" y="-56.2" font-family="Times,serif" font-size="14.00" fill="rgb(255, 255, 255)">MessageItem.tsx</text>
</g></g>
</svg>